<svg viewBox="0 0 40 40" fill="none" xmlns="http://www.w3.org/2000/svg">
<g id="icon-copy" clip-path="url(#clip0_2015_345)">
<path id="Union" fill-rule="evenodd" clip-rule="evenodd" d="M0.625 1.25C0.625 0.904822 0.904822 0.625 1.25 0.625H30C30.3452 0.625 30.625 0.904822 30.625 1.25V9.375H38.75C39.0952 9.375 39.375 9.65482 39.375 10V38.75C39.375 39.0952 39.0952 39.375 38.75 39.375H10C9.65482 39.375 9.375 39.0952 9.375 38.75V30.625H1.25C0.904822 30.625 0.625 30.3452 0.625 30V1.25ZM29.375 1.875V9.375H10C9.65482 9.375 9.375 9.65482 9.375 10V29.375H1.875V1.875H29.375ZM10.625 38.125V30V10.625H30H38.125V38.125H10.625ZM25 16.25C25 15.9048 24.7202 15.625 24.375 15.625C24.0298 15.625 23.75 15.9048 23.75 16.25V23.75H16.25C15.9048 23.75 15.625 24.0298 15.625 24.375C15.625 24.7202 15.9048 25 16.25 25H23.75V32.5C23.75 32.8452 24.0298 33.125 24.375 33.125C24.7202 33.125 25 32.8452 25 32.5V25H32.5C32.8452 25 33.125 24.7202 33.125 24.375C33.125 24.0298 32.8452 23.75 32.5 23.75H25V16.25Z" fill="#E7D1BB"/>
</g>
<defs>
<clipPath id="clip0_2015_345">
<rect width="40" height="40" fill="white"/>
</clipPath>
</defs>
</svg>
